<?xml version="1.0" encoding="UTF-8" standalone="no"?>
<!-- Created with sK1/UniConvertor (http://sk1project.org/) -->

<svg
   xmlns:dc="http://purl.org/dc/elements/1.1/"
   xmlns:cc="http://creativecommons.org/ns#"
   xmlns:rdf="http://www.w3.org/1999/02/22-rdf-syntax-ns#"
   xmlns:svg="http://www.w3.org/2000/svg"
   xmlns="http://www.w3.org/2000/svg"
   xmlns:sodipodi="http://sodipodi.sourceforge.net/DTD/sodipodi-0.dtd"
   xmlns:inkscape="http://www.inkscape.org/namespaces/inkscape"
   width="512pt"
   height="467.94772pt"
   viewBox="0 0 512 467.94772"
   version="1.1"
   id="svg26"
   sodipodi:docname="book-big.svg"
   style="fill-rule:evenodd"
   inkscape:version="0.92.1 r15371">
  <metadata
     id="metadata32">
    <rdf:RDF>
      <cc:Work
         rdf:about="">
        <dc:format>image/svg+xml</dc:format>
        <dc:type
           rdf:resource="http://purl.org/dc/dcmitype/StillImage" />
        <dc:title></dc:title>
      </cc:Work>
    </rdf:RDF>
  </metadata>
  <defs
     id="defs30" />
  <sodipodi:namedview
     pagecolor="#ffffff"
     bordercolor="#666666"
     borderopacity="1"
     objecttolerance="10"
     gridtolerance="10"
     guidetolerance="10"
     inkscape:pageopacity="0"
     inkscape:pageshadow="2"
     inkscape:window-width="2560"
     inkscape:window-height="1017"
     id="namedview28"
     showgrid="false"
     fit-margin-top="0"
     fit-margin-left="0"
     fit-margin-right="0"
     fit-margin-bottom="0"
     inkscape:zoom="0.21024124"
     inkscape:cx="678.87823"
     inkscape:cy="700.66745"
     inkscape:window-x="-8"
     inkscape:window-y="-8"
     inkscape:window-maximized="1"
     inkscape:current-layer="svg26" />
  <g
     id="g24"
     style="fill:#000000;fill-opacity:0.05;stroke:none"
     transform="translate(-107,2083.0577)">
    <path
       style="fill:#000000;fill-opacity:0.05;stroke:none"
       d="m 230.586,-1985.85 h 79.448 c 5.297,0 8.828,-3.53 8.828,-8.83 0,-5.3 -3.531,-8.83 -8.828,-8.83 h -79.448 c -5.297,0 -8.828,3.53 -8.828,8.83 10e-4,5.3 3.532,8.83 8.828,8.83 z"
       id="path2"
       inkscape:connector-curvature="0" />
    <path
       style="fill:#000000;fill-opacity:0.05;stroke:none"
       d="m 195.276,-1941.72 h 114.759 c 5.297,0 8.828,-3.53 8.828,-8.83 0,-5.29 -3.531,-8.82 -8.828,-8.82 H 195.276 c -5.297,0 -8.828,3.53 -8.828,8.82 0,5.3 3.531,8.83 8.828,8.83 z"
       id="path4"
       inkscape:connector-curvature="0" />
    <path
       style="fill:#000000;fill-opacity:0.05;stroke:none"
       d="m 195.276,-1897.58 h 79.448 c 5.297,0 8.828,-3.53 8.828,-8.83 0,-5.3 -3.531,-8.83 -8.828,-8.83 h -79.448 c -5.297,0 -8.828,3.53 -8.828,8.83 0,5.3 3.531,8.83 8.828,8.83 z"
       id="path6"
       inkscape:connector-curvature="0" />
    <path
       style="fill:#000000;fill-opacity:0.05;stroke:none"
       d="m 310.034,-1871.1 h -79.448 c -5.297,0 -8.828,3.53 -8.828,8.83 0,5.29 3.531,8.83 8.828,8.83 h 79.448 c 5.297,0 8.828,-3.54 8.828,-8.83 0,-5.3 -3.531,-8.83 -8.828,-8.83 z"
       id="path8"
       inkscape:connector-curvature="0" />
    <path
       style="fill:#000000;fill-opacity:0.05;stroke:none"
       d="m 195.276,-1809.31 h 114.759 c 5.297,0 8.828,-3.53 8.828,-8.83 0,-5.29 -3.531,-8.82 -8.828,-8.82 H 195.276 c -5.297,0 -8.828,3.53 -8.828,8.82 0,5.3 3.531,8.83 8.828,8.83 z"
       id="path10"
       inkscape:connector-curvature="0" />
    <path
       style="fill:#000000;fill-opacity:0.05;stroke:none"
       d="m 415.966,-1941.72 h 79.448 c 5.297,0 8.828,-3.53 8.828,-8.83 0,-5.29 -3.531,-8.82 -8.828,-8.82 h -79.448 c -5.297,0 -8.828,3.53 -8.828,8.82 0,5.3 3.531,8.83 8.828,8.83 z"
       id="path12"
       inkscape:connector-curvature="0" />
    <path
       style="fill:#000000;fill-opacity:0.05;stroke:none"
       d="m 415.966,-1985.85 h 123.586 c 5.297,0 8.828,-3.53 8.828,-8.83 0,-5.3 -3.531,-8.83 -8.828,-8.83 H 415.966 c -5.297,0 -8.828,3.53 -8.828,8.83 0,5.3 3.531,8.83 8.828,8.83 z"
       id="path14"
       inkscape:connector-curvature="0" />
    <path
       style="fill:#000000;fill-opacity:0.05;stroke:none"
       d="m 539.552,-1826.96 h -88.276 c -5.297,0 -8.828,3.53 -8.828,8.82 0,5.3 3.531,8.83 8.828,8.83 h 88.276 c 5.297,0 8.828,-3.53 8.828,-8.83 0,-5.29 -3.532,-8.82 -8.828,-8.82 z"
       id="path16"
       inkscape:connector-curvature="0" />
    <path
       style="fill:#000000;fill-opacity:0.05;stroke:none"
       d="m 415.966,-1853.45 h 79.448 c 5.297,0 8.828,-3.53 8.828,-8.82 0,-5.3 -3.531,-8.83 -8.828,-8.83 h -79.448 c -5.297,0 -8.828,3.53 -8.828,8.83 0,5.29 3.531,8.82 8.828,8.82 z"
       id="path18"
       inkscape:connector-curvature="0" />
    <path
       style="fill:#000000;fill-opacity:0.05;stroke:none"
       d="m 415.966,-1897.58 h 123.586 c 5.297,0 8.828,-3.53 8.828,-8.83 0,-5.3 -3.531,-8.83 -8.828,-8.83 H 415.966 c -5.297,0 -8.828,3.53 -8.828,8.83 0,5.3 3.531,8.83 8.828,8.83 z"
       id="path20"
       inkscape:connector-curvature="0" />
    <path
       style="fill:#000000;fill-opacity:0.05;stroke:none"
       d="m 592.517,-2065.3 h -15.89 c -69.714,-23.53 -145.443,-23.81 -213.613,-0.04 -67.409,-23.77 -146.543,-23.49 -213.642,0.04 H 133.482 107 v 344.26 17.66 26.48 h 317.793 v 61.79 l 44.138,-33.54 44.138,33.54 v -61.79 H 619 v -26.48 -17.66 -344.26 z m -167.724,344.26 h -35.31 c 12.359,-3.53 23.834,-7.06 35.31,-9.71 z m -89.558,0 H 154.669 c 52.128,-22.9 112.743,-22.47 180.566,0 z m 177.834,-16.76 c 0.107,0.01 0.215,0.02 0.322,0.03 21.06,2.67 40.375,7.95 57.94,15.85 l 1.766,0.88 h -60.028 z m 58.262,-310.73 1.766,0.89 h 1.766 v 307.18 c -26.162,-11.21 -55.06,-16.75 -86.6,-16.54 -18.036,-0.05 -36.966,1.93 -56.407,5.95 l -0.563,0.14 c -19.042,3.78 -38.864,9.31 -59.465,16.63 v -316.01 c 64.441,-20.3 135.944,-20.3 199.503,1.76 z m -417.545,0 c 62.676,-22.06 136.828,-22.95 200.386,-1.76 v 316.01 c -3.095,-1.05 -6.164,-2.06 -9.22,-3.04 -70.021,-23.91 -133.516,-25.8 -188.58,-4.36 -1.752,0.67 -3.497,1.38 -5.235,2.11 v -308.07 h 1.766 z m -29.131,0.89 h 8.828 v 326.6 h -8.828 z m 0,353.08 v -8.82 h 300.138 v 8.82 z m 370.759,44.14 -26.483,-19.42 -26.483,19.42 v -26.48 -26.48 -17.66 -13.24 c 18.538,-3.53 36.193,-4.41 52.966,-4.41 v 17.65 17.66 26.48 z m 105.931,-44.14 h -88.276 v -8.82 h 88.276 z m -8.828,-26.48 v -326.6 h 8.828 v 326.6 z"
       id="path22"
       inkscape:connector-curvature="0" />
  </g>
</svg>
